[Header]
FileType HTR
DataType HTRS
FileVersion 1
NumSegments 64
NumFrames 3
DataFrameRate 24
EulerRotationOrder ZYX
CalibrationUnits mm
RotationUnits Degrees
GlobalAxisofGravity Y
BoneLengthAxis Y
ScaleFactor 1.0
[SegmentNames&Hierarchy]
Hips	GLOBAL
Spine	Hips
Spine1	Spine
Spine2	Spine1
Neck	Spine2
Head	Neck
LeftEye	Head
RightEye	Head
LeftShoulder	Spine2
LeftArm	LeftShoulder
LeftForeArm	LeftArm
LeftHand	LeftForeArm
LeftHandThumb1	LeftHand
LeftHandThumb2	LeftHandThumb1
LeftHandThumb3	LeftHandThumb2
LeftHandThumb4	LeftHandThumb3
LeftHandIndex1	LeftHand
LeftHandIndex2	LeftHandIndex1
LeftHandIndex3	LeftHandIndex2
LeftHandIndex4	LeftHandIndex3
LeftHandMiddle1	LeftHand
LeftHandMiddle2	LeftHandMiddle1
LeftHandMiddle3	LeftHandMiddle2
LeftHandMiddle4	LeftHandMiddle3
LeftHandRing1	LeftHand
LeftHandRing2	LeftHandRing1
LeftHandRing3	LeftHandRing2
LeftHandRing4	LeftHandRing3
LeftHandPinky1	LeftHand
LeftHandPinky2	LeftHandPinky1
LeftHandPinky3	LeftHandPinky2
LeftHandPinky4	LeftHandPinky3
RightShoulder	Spine2
RightArm	RightShoulder
RightForeArm	RightArm
RightHand	RightForeArm
RightHandPinky1	RightHand
RightHandPinky2	RightHandPinky1
RightHandPinky3	RightHandPinky2
RightHandPinky4	RightHandPinky3
RightHandRing1	RightHand
RightHandRing2	RightHandRing1
RightHandRing3	RightHandRing2
RightHandRing4	RightHandRing3
RightHandMiddle1	RightHand
RightHandMiddle2	RightHandMiddle1
RightHandMiddle3	RightHandMiddle2
RightHandMiddle4	RightHandMiddle3
RightHandIndex1	RightHand
RightHandIndex2	RightHandIndex1
RightHandIndex3	RightHandIndex2
RightHandIndex4	RightHandIndex3
RightHandThumb1	RightHand
RightHandThumb2	RightHandThumb1
RightHandThumb3	RightHandThumb2
RightHandThumb4	RightHandThumb3
LeftUpLeg	Hips
LeftLeg	LeftUpLeg
LeftFoot	LeftLeg
LeftToeBase	LeftFoot
RightUpLeg	Hips
RightLeg	RightUpLeg
RightFoot	RightLeg
RightToeBase	RightFoot
[BasePosition]
Hips	0	0	0	0	0	0	1
Spine	0	0	0	0	0	0	1
Spine1	0	0	0	0	0	0	1
Spine2	0	0	0	0	0	0	1
Neck	0	0	0	0	0	0	1
Head	0	0	0	0	0	0	1
LeftEye	0	0	0	0	0	0	1
RightEye	0	0	0	0	0	0	1
LeftShoulder	0	0	0	0	0	0	1
LeftArm	0	0	0	0	0	0	1
LeftForeArm	0	0	0	0	0	0	1
LeftHand	0	0	0	0	0	0	1
LeftHandThumb1	0	0	0	0	0	0	1
LeftHandThumb2	0	0	0	0	0	0	1
LeftHandThumb3	0	0	0	0	0	0	1
LeftHandThumb4	0	0	0	0	0	0	1
LeftHandIndex1	0	0	0	0	0	0	1
LeftHandIndex2	0	0	0	0	0	0	1
LeftHandIndex3	0	0	0	0	0	0	1
LeftHandIndex4	0	0	0	0	0	0	1
LeftHandMiddle1	0	0	0	0	0	0	1
LeftHandMiddle2	0	0	0	0	0	0	1
LeftHandMiddle3	0	0	0	0	0	0	1
LeftHandMiddle4	0	0	0	0	0	0	1
LeftHandRing1	0	0	0	0	0	0	1
LeftHandRing2	0	0	0	0	0	0	1
LeftHandRing3	0	0	0	0	0	0	1
LeftHandRing4	0	0	0	0	0	0	1
LeftHandPinky1	0	0	0	0	0	0	1
LeftHandPinky2	0	0	0	0	0	0	1
LeftHandPinky3	0	0	0	0	0	0	1
LeftHandPinky4	0	0	0	0	0	0	1
RightShoulder	0	0	0	0	0	0	1
RightArm	0	0	0	0	0	0	1
RightForeArm	0	0	0	0	0	0	1
RightHand	0	0	0	0	0	0	1
RightHandPinky1	0	0	0	0	0	0	1
RightHandPinky2	0	0	0	0	0	0	1
RightHandPinky3	0	0	0	0	0	0	1
RightHandPinky4	0	0	0	0	0	0	1
RightHandRing1	0	0	0	0	0	0	1
RightHandRing2	0	0	0	0	0	0	1
RightHandRing3	0	0	0	0	0	0	1
RightHandRing4	0	0	0	0	0	0	1
RightHandMiddle1	0	0	0	0	0	0	1
RightHandMiddle2	0	0	0	0	0	0	1
RightHandMiddle3	0	0	0	0	0	0	1
RightHandMiddle4	0	0	0	0	0	0	1
RightHandIndex1	0	0	0	0	0	0	1
RightHandIndex2	0	0	0	0	0	0	1
RightHandIndex3	0	0	0	0	0	0	1
RightHandIndex4	0	0	0	0	0	0	1
RightHandThumb1	0	0	0	0	0	0	1
RightHandThumb2	0	0	0	0	0	0	1
RightHandThumb3	0	0	0	0	0	0	1
RightHandThumb4	0	0	0	0	0	0	1
LeftUpLeg	0	0	0	0	0	0	1
LeftLeg	0	0	0	0	0	0	1
LeftFoot	0	0	0	0	0	0	1
LeftToeBase	0	0	0	0	0	0	1
RightUpLeg	0	0	0	0	0	0	1
RightLeg	0	0	0	0	0	0	1
RightFoot	0	0	0	0	0	0	1
RightToeBase	0	0	0	0	0	0	1
[Hips]
4	-602.1615601	939.7974854	5.805974007	-16.84407806	-79.70027924	37.81348038	1.0
5	-808.4472656	948.4891357	5.657492161	-6.122536182	-77.78825378	25.98725319	1.0
6	-1019.234741	951.4120483	7.972093582	5.510984898	-75.39228058	12.51041412	1.0
[Spine]
4	0	101.8159943	1.315000057	6.76818943	19.7902832	-9.725380898	1.0
5	0	101.8159943	1.315000057	6.200079918	20.85693169	-8.634736061	1.0
6	0	101.8159943	1.315000057	6.17131424	19.39642334	-6.052821159	1.0
[Spine1]
4	0	100.8349991	-10.00800037	2.817643166	7.840612888	-3.238393068	1.0
5	0	100.8349991	-10.00800037	2.503861666	8.062264442	-3.069476604	1.0
6	0	100.8349991	-10.00800037	2.320989847	7.633359909	-2.787458181	1.0
[Spine2]
4	0	91	-13.73399925	2.751326561	7.822244167	-3.337090969	1.0
5	0	91	-13.73399925	2.443784475	8.033193588	-3.196558952	1.0
6	0	91	-13.73399925	2.286156654	7.590252876	-2.932092905	1.0
[Neck]
4	0	166.7169952	-25.16200066	0.2033223957	3.471335888	3.720197916	1.0
5	0	166.7169952	-25.16200066	1.189147592	2.86017704	3.89901948	1.0
6	0	166.7169952	-25.16200066	1.2651788	3.200877666	4.159780979	1.0
[Head]
4	0	96.17900085	16.84999847	-28.25458336	30.24912453	-29.32883453	1.0
5	0	96.17900085	16.84999847	-25.52941322	29.24761581	-28.00147629	1.0
6	0	96.17900085	16.84999847	-24.45445633	30.91139603	-27.49657822	1.0
[LeftEye]
4	30.6760006	64.09500122	92.83599854	0	0	0	1.0
5	30.6760006	64.09500122	92.83599854	0	0	0	1.0
6	30.6760006	64.09500122	92.83599854	0	0	0	1.0
[RightEye]
4	-30.6760006	64.09500122	92.83499908	0	0	0	1.0
5	-30.6760006	64.09500122	92.83499908	0	0	0	1.0
6	-30.6760006	64.09500122	92.83499908	0	0	0	1.0
[LeftShoulder]
4	45.70400238	109.4599991	-26.28000069	-1.155448556	11.65646172	0.301540643	1.0
5	45.70400238	109.4599991	-26.28000069	-1.122287512	11.45773506	4.283236504	1.0
6	45.70400238	109.4599991	-26.28000069	-1.159878492	10.11587811	4.153126717	1.0
[LeftArm]
4	105.923996	-5.24600029	-22.32099915	14.68429756	34.53638077	-50.247612	1.0
5	105.923996	-5.24600029	-22.32099915	14.00724983	39.58769226	-51.68379974	1.0
6	105.923996	-5.24600029	-22.32099915	11.74741745	39.70261765	-53.57510376	1.0
[LeftForeArm]
4	278.414978	-0.0009999999311	0	3.777092388e-06	-54.02619934	-0.0002117409022	1.0
5	278.414978	-0.0009999999311	0	5.364557182e-06	-58.21761703	-0.0002141080768	1.0
6	278.414978	-0.0009999999311	0	-4.663766504e-06	-60.19622803	-0.0002069787297	1.0
[LeftHand]
4	283.2879944	0	0	30.00061417	-25.66268921	9.194265366	1.0
5	283.2879944	0	0	31.33868027	-21.66898537	6.793437004	1.0
6	283.2879944	0	0	33.39656067	-17.14239883	3.405109167	1.0
[LeftHandThumb1]
4	24.6609993	-15.75	26.8239994	-2.942717314	-4.376450539	-5.074227333	1.0
5	24.6609993	-15.75	26.8239994	-2.098026037	-2.100150108	-4.362999439	1.0
6	24.6609993	-15.75	26.8239994	-1.286573887	0.008767301217	-3.672434807	1.0
[LeftHandThumb2]
4	32.29800034	-18.64699936	18.64699936	6.580426216	9.629364014	16.54296303	1.0
5	32.29800034	-18.64699936	18.64699936	7.044541836	11.81845188	17.10596275	1.0
6	32.29800034	-18.64699936	18.64699936	7.499968052	13.85159302	17.6513958	1.0
[LeftHandThumb3]
4	26.52600098	-15.31499958	15.31499958	-30.36761665	-25.08325386	22.90491486	1.0
5	26.52600098	-15.31499958	15.31499958	-29.58975029	-23.61538506	22.49175835	1.0
6	26.52600098	-15.31499958	15.31499958	-28.88373756	-22.24467087	22.13080788	1.0
[LeftHandThumb4]
4	19.54599953	-11.28499985	11.28499985	0	0	0	1.0
5	19.54599953	-11.28499985	11.28499985	0	0	0	1.0
6	19.54599953	-11.28499985	11.28499985	0	0	0	1.0
[LeftHandIndex1]
4	91.09299469	-5.170999527	22.60099792	-0.8228495717	-4.080176353	-16.82097626	1.0
5	91.09299469	-5.170999527	22.60099792	-1.407424331	-3.697668552	-24.60717964	1.0
6	91.09299469	-5.170999527	22.60099792	-2.073169947	-3.239113331	-32.35978699	1.0
[LeftHandIndex2]
4	36.76399994	0	0	-0.1699156612	1.398948789	-13.84966087	1.0
5	36.76399994	0	0	-0.3267698586	1.926568747	-19.25132751	1.0
6	36.76399994	0	0	-0.5232970119	2.416507006	-24.43439865	1.0
[LeftHandIndex3]
4	28.83100128	0	0	-0.002114725066	-0.156977579	1.538951635	1.0
5	28.83100128	0	0	-0.01053322945	0.350743562	-3.440114975	1.0
6	28.83100128	0	0	-0.05921789259	0.8299583793	-8.163590431	1.0
[LeftHandIndex4]
4	23.92700005	0	0	0	0	0	1.0
5	23.92700005	0	0	0	0	0	1.0
6	23.92700005	0	0	0	0	0	1.0
[LeftHandMiddle1]
4	95.33399963	0	0	-1.412453532	0.4490763843	-24.20720482	1.0
5	95.33399963	0	0	-2.111931801	0.2349309772	-32.4981041	1.0
6	95.33399963	0	0	-2.889660597	0.01635533385	-40.74341583	1.0
[LeftHandMiddle2]
4	36.98199844	0	0	-0.5277312994	2.426254034	-24.53945541	1.0
5	36.98199844	0	0	-0.9376618266	3.173232317	-32.91659927	1.0
6	36.98199844	0	0	-1.449990034	3.849600554	-41.26668167	1.0
[LeftHandMiddle3]
4	29.50900078	0	0	-0.0182292033	-0.4610971808	4.524443626	1.0
5	29.50900078	0	0	-6.367955393e-06	0.003581668483	-0.03506854177	1.0
6	29.50900078	0	0	-0.01756240614	0.4527156651	-4.442203999	1.0
[LeftHandMiddle4]
4	28.3390007	0	0	0	0	0	1.0
5	28.3390007	0	0	0	0	0	1.0
6	28.3390007	0	0	0	0	0	1.0
[LeftHandRing1]
4	91.04499817	-0.4390000105	-18.65100098	-1.37202704	8.466625214	-23.65783119	1.0
5	91.04499817	-0.4390000105	-18.65100098	-2.152641773	7.524421692	-32.83272171	1.0
6	91.04499817	-0.4390000105	-18.65100098	-3.021949053	6.39117384	-41.91287613	1.0
[LeftHandRing2]
4	31.54000092	0	0	-1.492771864	3.897706032	-41.89978409	1.0
5	31.54000092	0	0	-2.157932043	4.529033184	-50.93437958	1.0
6	31.54000092	0	0	-2.906634092	5.04351759	-59.8893013	1.0
[LeftHandRing3]
4	29.37700081	0	0	-0.002659453312	0.1763042361	-1.728303194	1.0
5	29.37700081	0	0	-0.05459015071	0.7969809175	-7.836968422	1.0
6	29.37700081	0	0	-0.1643162668	1.376062989	-13.6187048	1.0
[LeftHandRing4]
4	26.47500038	0	0	0	0	0	1.0
5	26.47500038	0	0	0	0	0	1.0
6	26.47500038	0	0	0	0	0	1.0
[LeftHandPinky1]
4	80.77799988	-4.887000084	-38.06099701	-2.888418913	16.95516968	-30.26812935	1.0
5	80.77799988	-4.887000084	-38.06099701	-3.693035841	14.40333557	-41.06682205	1.0
6	80.77799988	-4.887000084	-38.06099701	-4.552607059	11.43747044	-51.61109161	1.0
[LeftHandPinky2]
4	36	0	0	-2.475558519	4.768532276	-54.85203552	1.0
5	36	0	0	-3.400816441	5.298327923	-65.36827087	1.0
6	36	0	0	-4.389101982	5.646024227	-75.70372772	1.0
[LeftHandPinky3]
4	21.14200211	0	0	-0.05415707454	0.7938011289	-7.805212498	1.0
5	21.14200211	0	0	-0.2682995796	1.750288844	-17.4289856	1.0
6	21.14200211	0	0	-0.6275541782	2.633725882	-26.80057335	1.0
[LeftHandPinky4]
4	19.75699997	0	0	0	0	0	1.0
5	19.75699997	0	0	0	0	0	1.0
6	19.75699997	0	0	0	0	0	1.0
[RightShoulder]
4	-45.70000076	109.4620056	-26.28000069	3.122046709	14.816185	9.305036545	1.0
5	-45.70000076	109.4620056	-26.28000069	2.799663544	13.3514204	8.982196808	1.0
6	-45.70000076	109.4620056	-26.28000069	2.809143543	12.84052563	9.646916389	1.0
[RightArm]
4	-105.9280014	-5.248000145	-22.32099915	-22.60434341	0.945294857	35.47018051	1.0
5	-105.9280014	-5.248000145	-22.32099915	-32.3237915	-7.267723083	37.1215477	1.0
6	-105.9280014	-5.248000145	-22.32099915	-31.86091042	-11.93126106	39.75183868	1.0
[RightForeArm]
4	-278.414978	0	0	-1.525878906e-05	125.3103638	1.525878906e-05	1.0
5	-278.414978	0	0	-2.684000374e-12	137.3576965	1.525879088e-05	1.0
6	-278.414978	0	0	1.525878906e-05	141.2446747	-1.297515914e-12	1.0
[RightHand]
4	-283.2879944	0	0.0009999999311	27.83932495	-21.44314384	2.267132044	1.0
5	-283.2879944	0	0.0009999999311	37.66926956	-4.984200954	-3.146009922	1.0
6	-283.2879944	0	0.0009999999311	47.74023819	0.100173682	-5.544520378	1.0
[RightHandPinky1]
4	-80.76699829	-4.885000229	-38.06000137	-4.387624264	-3.669350386	57.25980377	1.0
5	-80.76699829	-4.885000229	-38.06000137	-4.435696602	-3.667586327	57.98725891	1.0
6	-80.76699829	-4.885000229	-38.06000137	-4.319144726	-3.655749798	56.12201309	1.0
[RightHandPinky2]
4	-36	0	0.0009999999311	-3.979977131	-4.584701538	81.93497467	1.0
5	-36	0	0.0009999999311	-4.038264275	-4.592583656	82.66318512	1.0
6	-36	0	0.0009999999311	-3.889071703	-4.570910454	80.79593658	1.0
[RightHandPinky3]
4	-21.14200211	0	0	-0.670011282	-2.401065588	31.17876053	1.0
5	-21.14200211	0	0	-0.7006926537	-2.451033831	31.90363121	1.0
6	-21.14200211	0	0	-0.6232936978	-2.322196722	30.045084	1.0
[RightHandPinky4]
4	-19.75699997	0	0	0	0	0	1.0
5	-19.75699997	0	0	0	0	0	1.0
6	-19.75699997	0	0	0	0	0	1.0
[RightHandRing1]
4	-91.03599548	-0.4390000105	-18.65100098	-2.936216831	-2.47017622	45.04846954	1.0
5	-91.03599548	-0.4390000105	-18.65100098	-2.979893208	-2.47826457	45.55636978	1.0
6	-91.03599548	-0.4390000105	-18.65100098	-2.868202686	-2.444581032	44.25425339	1.0
[RightHandRing2]
4	-31.54000092	0	0	-2.569788456	-4.147587299	63.54970169	1.0
5	-31.54000092	0	0	-2.606748343	-4.165729523	64.05955505	1.0
6	-31.54000092	0	0	-2.512311935	-4.118576527	62.75222397	1.0
[RightHandRing3]
4	-29.37700081	0	0	-0.08204072714	-0.8686723709	10.78968239	1.0
5	-29.37700081	0	0	-0.08988941461	-0.9089493752	11.29637909	1.0
6	-29.37700081	0	0	-0.07045219094	-0.8055515885	9.997161865	1.0
[RightHandRing4]
4	-26.47500038	0	0	0	0	0	1.0
5	-26.47500038	0	0	0	0	0	1.0
6	-26.47500038	0	0	0	0	0	1.0
[RightHandMiddle1]
4	-95.32500458	0	0	-2.705550432	1.604469419	42.46286011	1.0
5	-95.32500458	0	0	-2.7395432	1.608958244	42.86334229	1.0
6	-95.32500458	0	0	-2.65251255	1.618023157	41.83573151	1.0
[RightHandMiddle2]
4	-36.98199844	0	0	-1.285032153	-3.203286409	43.70850754	1.0
5	-36.98199844	0	0	-1.307882905	-3.226991892	44.11613464	1.0
6	-36.98199844	0	0	-1.249590039	-3.165870905	43.07073593	1.0
[RightHandMiddle3]
4	-29.50900078	0	0	-0.0004454539157	0.06185592711	-0.7886958718	1.0
5	-29.50900078	0	0	-0.0001589549065	0.03641181067	-0.4745188355	1.0
6	-29.50900078	0	0	-0.00116586173	0.1018908918	-1.283064246	1.0
[RightHandMiddle4]
4	-28.3390007	0	0.0009999999311	0	0	0	1.0
5	-28.3390007	0	0.0009999999311	0	0	0	1.0
6	-28.3390007	0	0.0009999999311	0	0	0	1.0
[RightHandIndex1]
4	-91.08300018	-5.167999744	22.60099792	-1.935383439	3.412211418	33.16207504	1.0
5	-91.08300018	-5.167999744	22.60099792	-1.962297201	3.410711288	33.49953461	1.0
6	-91.08300018	-5.167999744	22.60099792	-1.893236876	3.432399273	32.63394165	1.0
[RightHandIndex2]
4	-36.76399994	0	0	-0.2878436744	-1.608712554	20.28868294	1.0
5	-36.76399994	0	0	-0.2976717353	-1.635009885	20.63567734	1.0
6	-36.76399994	0	0	-0.2728075087	-1.567419887	19.74579811	1.0
[RightHandIndex3]
4	-28.83100128	0	0	-0.007772406563	-0.2683162987	3.314597845	1.0
5	-28.83100128	0	0	-0.009446572512	-0.2959346771	3.656493187	1.0
6	-28.83100128	0	0	-0.005457399413	-0.2250445932	2.7798419	1.0
[RightHandIndex4]
4	-23.92700005	0	0	0	0	0	1.0
5	-23.92700005	0	0	0	0	0	1.0
6	-23.92700005	0	0	0	0	0	1.0
[RightHandThumb1]
4	-24.64799881	-15.72700024	26.82600021	-0.8752104044	-1.926358819	2.938893557	1.0
5	-24.64799881	-15.72700024	26.82600021	-0.7451775074	-2.265565157	2.827090502	1.0
6	-24.64799881	-15.72700024	26.82600021	-1.083613157	-1.399317861	3.115703821	1.0
[RightHandThumb2]
4	-32.29800034	-18.64699936	18.64699936	9.613328934	-19.28219986	-19.98591614	1.0
5	-32.29800034	-18.64699936	18.64699936	9.698829651	-19.60387039	-20.09058571	1.0
6	-32.29800034	-18.64699936	18.64699936	9.482608795	-18.77466583	-19.84376717	1.0
[RightHandThumb3]
4	-26.52600098	-15.31399918	15.31399918	-24.06409073	14.10939789	-20.9823246	1.0
5	-26.52600098	-15.31399918	15.31399918	-23.96453285	13.88699245	-20.94262314	1.0
6	-26.52600098	-15.31399918	15.31399918	-24.22311211	14.45477867	-21.05101204	1.0
[RightHandThumb4]
4	-19.54599953	-11.28499985	11.28499985	0	0	0	1.0
5	-19.54599953	-11.28499985	11.28499985	0	0	0	1.0
6	-19.54599953	-11.28499985	11.28499985	0	0	0	1.0
[LeftUpLeg]
4	82.07800293	-67.51699829	-15.99599934	-83.5697403	-6.317289829	-7.966591358	1.0
5	82.07800293	-67.51699829	-15.99599934	-76.0144043	-8.815903664	-9.086773872	1.0
6	82.07800293	-67.51699829	-15.99599934	-59.13760376	-7.203792572	-10.48735332	1.0
[LeftLeg]
4	0	-443.7049866	2.845999956	74.9810257	0.455820471	-5.602894306	1.0
5	0	-443.7049866	2.845999956	44.90524292	-3.925257921	-6.039775372	1.0
6	0	-443.7049866	2.845999956	16.75448608	-8.174310684	-5.506070614	1.0
[LeftFoot]
4	0	-444.2789917	-29.8219986	-16.25235939	0.6981135607	-1.223257422	1.0
5	0	-444.2789917	-29.8219986	-13.49319935	-0.6515495777	-15.50488281	1.0
6	0	-444.2789917	-29.8219986	0.4835827649	0.9410234094	-16.91086006	1.0
[LeftToeBase]
4	0	-87.28699493	107.1060028	-5.83163929	1.625861296e-05	4.87357147e-06	1.0
5	0	-87.28699493	107.1060028	-6.946022987	1.61280368e-05	-1.992726624e-07	1.0
6	0	-87.28699493	107.1060028	-8.097219467	1.119806075e-05	-7.980302144e-06	1.0
[RightUpLeg]
4	-82.07800293	-67.51699829	-15.99599934	9.076106071	-10.8360424	6.192986488	1.0
5	-82.07800293	-67.51699829	-15.99599934	10.80732441	-16.17786598	7.229832649	1.0
6	-82.07800293	-67.51699829	-15.99599934	12.24995136	-23.52734947	4.712946892	1.0
[RightLeg]
4	0	-443.7049866	2.861999989	6.206263542	5.932332993	-7.153188229	1.0
5	0	-443.7049866	2.861999989	24.31170082	10.21072769	-3.602825165	1.0
6	0	-443.7049866	2.861999989	45.67007828	6.505676746	3.127152681	1.0
[RightFoot]
4	0	-444.2770081	-29.83799934	5.043104172	3.662479877	4.551239967	1.0
5	0	-444.2770081	-29.83799934	10.00100422	0.6075789928	16.24165344	1.0
6	0	-444.2770081	-29.83799934	11.9972105	-1.297509313	12.80461121	1.0
[RightToeBase]
4	0	-87.28699493	107.1060028	-25.57598114	-2.389449835	-5.961888313	1.0
5	0	-87.28699493	107.1060028	-10.63641548	4.637996881e-06	1.225998403e-05	1.0
6	0	-87.28699493	107.1060028	-6.021089077	-3.664602218e-06	-3.236791599e-05	1.0
[EndOfFile]
